<svg width="405" height="314" viewBox="0 0 405 314" fill="none" xmlns="http://www.w3.org/2000/svg">
<path d="M52.813 283.72L40.8275 131.817C40.5225 127.949 41.5629 124.096 43.7612 120.95L103.575 35.3854C105.173 33.098 107.318 31.2786 109.801 30.1058C112.283 28.933 115.018 28.4466 117.737 28.6946L322.502 47.3619C325.742 47.6576 328.815 48.9824 331.298 51.1548C333.784 53.3271 335.556 56.2405 336.373 59.4954L364.501 171.415C365.189 174.163 365.171 177.05 364.45 179.789L336.92 284.086L52.813 283.72Z" fill="#F4F4F4"/>
<path d="M255.899 126.005C265.568 122.571 270.714 111.684 267.393 101.687C264.07 91.6909 253.54 86.3712 243.869 89.8053C234.199 93.2394 229.053 104.127 232.375 114.124C235.697 124.12 246.229 129.439 255.899 126.005Z" fill="#DADDDF"/>
<path opacity="0.05" d="M255.899 126.005C265.568 122.571 270.714 111.684 267.393 101.687C264.07 91.6909 253.54 86.3712 243.869 89.8053C234.199 93.2394 229.053 104.127 232.375 114.124C235.697 124.12 246.229 129.439 255.899 126.005Z" fill="#133133"/>
<path d="M249.787 126.785C259.984 125.996 267.631 116.812 266.867 106.271C266.105 95.731 257.22 87.8258 247.023 88.6147C236.827 89.4034 229.18 98.5876 229.943 109.128C230.706 119.668 239.59 127.573 249.787 126.785Z" fill="#DADDDF"/>
<path opacity="0.4" d="M249.787 126.785C259.984 125.996 267.631 116.812 266.867 106.271C266.105 95.731 257.22 87.8258 247.023 88.6147C236.827 89.4034 229.18 98.5876 229.943 109.128C230.706 119.668 239.59 127.573 249.787 126.785Z" fill="white"/>
<path d="M255.921 120.914C262.994 116.626 265.365 107.221 261.217 99.9085C257.068 92.5962 247.972 90.1447 240.898 94.4331C233.824 98.7216 231.453 108.126 235.601 115.439C239.75 122.751 248.847 125.203 255.921 120.914Z" fill="#DADDDF"/>
<path opacity="0.05" d="M234.34 107.035C234.67 102.979 236.545 99.224 239.553 96.5966C242.561 93.9695 246.455 92.6847 250.378 93.0251C253.439 93.2868 256.512 94.8149 258.732 96.6649C257.337 95.2349 255.679 94.1056 253.856 93.3423C252.036 92.5793 250.086 92.1975 248.121 92.2195C246.156 92.2414 244.215 92.6664 242.41 93.47C240.605 94.2735 238.972 95.4395 237.606 96.9004C236.24 98.361 235.169 100.088 234.454 101.98C233.738 103.872 233.394 105.893 233.44 107.924C233.485 109.955 233.921 111.956 234.721 113.812C235.521 115.667 236.669 117.34 238.099 118.734C236.735 117.036 235.741 115.055 235.183 112.925C234.692 111.166 234.184 108.971 234.34 107.035Z" fill="#133133"/>
<g opacity="0.05">
<path opacity="0.05" d="M246.652 118.2L246.829 116.005C244.44 115.685 243.311 114.736 243.554 111.75C243.6 111.108 243.697 110.47 243.845 109.845L246.87 110.107C246.81 110.393 246.768 110.683 246.746 110.975C246.639 112.271 246.662 113.011 247.887 113.118C249.112 113.226 249.262 112.784 249.406 111.119C249.472 110.303 249.495 110.023 249.09 109.589C248.262 108.639 246.075 107.851 245.075 106.972C244.177 106.213 244.037 105.234 244.25 102.615C244.503 99.6008 245.45 98.6614 248.242 98.7608L248.383 97.0181L250.1 97.1673L249.958 98.91C252.512 99.2449 253.335 100.252 253.117 102.929C253.071 103.505 252.987 104.077 252.864 104.64L249.867 104.379C249.912 104.117 249.935 103.855 249.971 103.424C250.067 102.241 249.95 101.634 248.806 101.534C247.824 101.451 247.525 101.765 247.411 103.173C247.293 104.638 247.363 104.787 248.254 105.289C249.224 105.857 250.181 106.252 251.019 106.75C252.193 107.477 252.99 107.828 252.752 110.729C252.421 114.817 251.57 116.162 248.556 116.125L248.373 118.349L246.652 118.2Z" fill="#133133"/>
</g>
<path d="M161.758 78.023C166.806 76.2303 169.492 70.5469 167.758 65.3287C166.024 60.1106 160.526 57.3335 155.478 59.1262C150.43 60.9189 147.744 66.6025 149.478 71.8207C151.212 77.0389 156.71 79.8157 161.758 78.023Z" fill="#DADDDF"/>
<path opacity="0.05" d="M161.758 78.023C166.806 76.2303 169.492 70.5469 167.758 65.3287C166.024 60.1106 160.526 57.3335 155.478 59.1262C150.43 60.9189 147.744 66.6025 149.478 71.8207C151.212 77.0389 156.71 79.8157 161.758 78.023Z" fill="#133133"/>
<path d="M158.57 78.4354C163.892 78.0235 167.884 73.2292 167.486 67.7272C167.087 62.2249 162.45 58.0984 157.127 58.5102C151.805 58.9218 147.813 63.7161 148.211 69.2184C148.609 74.7205 153.247 78.847 158.57 78.4354Z" fill="#DADDDF"/>
<path opacity="0.4" d="M158.57 78.4354C163.892 78.0235 167.884 73.2292 167.486 67.7272C167.087 62.2249 162.45 58.0984 157.127 58.5102C151.805 58.9218 147.813 63.7161 148.211 69.2184C148.609 74.7205 153.247 78.847 158.57 78.4354Z" fill="white"/>
<path d="M161.772 75.3676C165.466 73.1285 166.704 68.2178 164.538 64.3996C162.372 60.5813 157.621 59.3013 153.928 61.5404C150.234 63.7797 148.996 68.6904 151.162 72.5086C153.328 76.3269 158.079 77.6069 161.772 75.3676Z" fill="#DADDDF"/>
<path opacity="0.05" d="M150.506 68.1223C150.591 67.0735 150.875 66.0525 151.342 65.1173C151.809 64.1819 152.449 63.3511 153.227 62.6718C154.005 61.9925 154.904 61.4786 155.874 61.1588C156.844 60.8391 157.865 60.7203 158.88 60.8087C160.48 60.9971 161.995 61.6565 163.243 62.7084C162.519 61.9422 161.654 61.3341 160.698 60.9196C159.743 60.5052 158.717 60.293 157.68 60.2958C156.644 60.2985 155.619 60.5159 154.665 60.9353C153.712 61.3548 152.849 61.9676 152.129 62.7375C151.409 63.5075 150.845 64.4189 150.471 65.418C150.097 66.417 149.921 67.4836 149.953 68.5543C149.985 69.625 150.224 70.6782 150.656 71.6516C151.089 72.625 151.706 73.499 152.47 74.2217C151.759 73.336 151.241 72.3014 150.952 71.189C150.688 70.281 150.425 69.1323 150.506 68.1223Z" fill="#133133"/>
<g opacity="0.05">
<path opacity="0.05" d="M156.937 73.9522L157.031 72.8061C155.783 72.6387 155.193 72.1441 155.32 70.5846C155.345 70.2494 155.396 69.9171 155.471 69.5903L157.051 69.7263C157.02 69.8757 156.998 70.0267 156.985 70.179C156.932 70.8567 156.942 71.244 157.582 71.2989C158.223 71.3539 158.299 71.1236 158.37 70.2523C158.405 69.8258 158.415 69.6792 158.205 69.4542C157.772 68.957 156.631 68.5462 156.109 68.0857C155.641 67.6906 155.568 67.1803 155.679 65.8118C155.806 64.2418 156.304 63.7472 157.762 63.7996L157.836 62.889L158.732 62.9675L158.658 63.8781C159.992 64.0534 160.43 64.5793 160.309 65.9714C160.286 66.2718 160.242 66.5698 160.177 66.8637L158.608 66.725C158.635 66.5604 158.654 66.3945 158.663 66.2278C158.711 65.6103 158.663 65.2937 158.056 65.2414C157.55 65.1969 157.385 65.3617 157.327 66.097C157.269 66.8323 157.302 66.9396 157.767 67.2012C158.274 67.4969 158.78 67.7036 159.21 67.9627C159.823 68.3421 160.238 68.5279 160.116 70.056C159.942 72.1886 159.499 72.8899 157.924 72.8716L157.828 74.0334L156.937 73.9522Z" fill="#133133"/>
</g>
<path d="M84.6028 165.267C92.1191 162.597 96.119 154.134 93.5369 146.365C90.9545 138.595 82.7682 134.46 75.2519 137.129C67.7356 139.798 63.7357 148.261 66.3178 156.031C68.9002 163.801 77.0865 167.936 84.6028 165.267Z" fill="#DADDDF"/>
<path opacity="0.05" d="M84.6028 165.267C92.1191 162.597 96.119 154.134 93.5369 146.365C90.9545 138.595 82.7682 134.46 75.2519 137.129C67.7356 139.798 63.7357 148.261 66.3178 156.031C68.9002 163.801 77.0865 167.936 84.6028 165.267Z" fill="#133133"/>
<path d="M79.8397 165.859C87.765 165.246 93.7089 158.108 93.1159 149.915C92.5228 141.722 85.617 135.578 77.6919 136.191C69.7666 136.804 63.8227 143.942 64.4158 152.135C65.0089 160.328 71.9144 166.472 79.8397 165.859Z" fill="#DADDDF"/>
<path opacity="0.4" d="M79.8397 165.859C87.765 165.246 93.7089 158.108 93.1159 149.915C92.5228 141.722 85.617 135.578 77.6919 136.191C69.7666 136.804 63.8227 143.942 64.4158 152.135C65.0089 160.328 71.9144 166.472 79.8397 165.859Z" fill="white"/>
<path d="M84.6159 161.304C90.1138 157.972 91.9568 150.662 88.7325 144.979C85.5084 139.296 78.4379 137.391 72.9402 140.724C67.4426 144.057 65.5996 151.366 68.8237 157.049C72.048 162.732 79.1183 164.638 84.6159 161.304Z" fill="#DADDDF"/>
<path opacity="0.05" d="M67.8373 150.516C67.9638 148.955 68.3868 147.435 69.0819 146.042C69.7769 144.65 70.7305 143.413 71.8883 142.401C73.0458 141.39 74.3848 140.624 75.8289 140.148C77.2727 139.672 78.7933 139.494 80.3037 139.626C82.6805 139.832 85.0675 141.015 86.7989 142.454C85.7086 141.366 84.422 140.51 83.0119 139.936C81.6019 139.362 80.0964 139.081 78.5812 139.108C77.0657 139.135 75.5705 139.471 74.1808 140.095C72.7909 140.72 71.5339 141.622 70.4811 142.749C69.4284 143.876 68.6007 145.206 68.0453 146.663C67.49 148.121 67.2176 149.677 67.2439 151.244C67.2705 152.81 67.595 154.356 68.1995 155.792C68.8037 157.229 69.6757 158.529 70.7659 159.617C69.7005 158.299 68.9232 156.758 68.4878 155.101C68.1106 153.727 67.7183 152.029 67.8373 150.516Z" fill="#133133"/>
<g opacity="0.05">
<path opacity="0.05" d="M77.4072 159.193L77.5464 157.487C75.6884 157.225 74.8101 156.5 74.9974 154.179C75.0344 153.68 75.1106 153.185 75.2252 152.698L77.5768 152.903C77.5307 153.125 77.4978 153.351 77.478 153.578C77.397 154.585 77.4148 155.161 78.369 155.244C79.3233 155.328 79.4347 154.983 79.541 153.69C79.5916 153.054 79.6094 152.837 79.2879 152.5C78.6424 151.762 76.9439 151.149 76.1668 150.466C75.4682 149.875 75.3594 149.116 75.5239 147.08C75.7138 144.725 76.4579 144.006 78.6272 144.084L78.7361 142.729L80.07 142.844L79.9612 144.2C81.9457 144.461 82.5861 145.246 82.4165 147.324C82.3818 147.771 82.3175 148.215 82.2241 148.653L79.8929 148.452C79.9334 148.206 79.9604 147.958 79.9739 147.708C80.0498 146.787 79.9587 146.316 79.0702 146.241C78.3108 146.175 78.0754 146.418 77.9843 147.512C77.8932 148.653 77.9489 148.768 78.6424 149.158C79.4018 149.598 80.1384 149.906 80.7889 150.294C81.7027 150.859 82.3203 151.131 82.1381 153.387C81.885 156.563 81.2192 157.607 78.8753 157.573L78.7335 159.303L77.4072 159.193Z" fill="#133133"/>
</g>
<path d="M286.089 89.4366C290.863 87.741 293.402 82.3659 291.761 77.4306C290.121 72.4953 284.922 69.8687 280.148 71.5643C275.374 73.2599 272.833 78.635 274.473 83.5703C276.113 88.5056 281.312 91.1322 286.089 89.4366Z" fill="#DADDDF"/>
<path opacity="0.05" d="M286.089 89.4366C290.863 87.741 293.402 82.3659 291.761 77.4306C290.121 72.4953 284.922 69.8687 280.148 71.5643C275.374 73.2599 272.833 78.635 274.473 83.5703C276.113 88.5056 281.312 91.1322 286.089 89.4366Z" fill="#133133"/>
<path d="M283.462 91.4436C288.509 91.0783 292.314 86.5518 291.962 81.3333C291.607 76.1149 287.228 72.1807 282.181 72.546C277.134 72.9113 273.327 77.4376 273.681 82.6561C274.033 87.8745 278.412 91.8089 283.462 91.4436Z" fill="#DADDDF"/>
<path opacity="0.4" d="M283.462 91.4436C288.509 91.0783 292.314 86.5518 291.962 81.3333C291.607 76.1149 287.228 72.1807 282.181 72.546C277.134 72.9113 273.327 77.4376 273.681 82.6561C274.033 87.8745 278.412 91.8089 283.462 91.4436Z" fill="white"/>
<path d="M286.102 86.9252C289.593 84.808 290.765 80.1653 288.717 76.555C286.669 72.9448 282.176 71.7346 278.686 73.8518C275.193 75.9692 274.023 80.6119 276.071 84.2221C278.119 87.8321 282.609 89.0423 286.102 86.9252Z" fill="#DADDDF"/>
<path opacity="0.05" d="M275.448 80.0703C275.613 78.0685 276.539 76.2159 278.022 74.9191C279.508 73.622 281.43 72.9867 283.366 73.1518C284.88 73.3305 286.312 73.9543 287.494 74.9494C286.816 74.1958 285.993 73.5932 285.082 73.178C284.171 72.7629 283.186 72.5439 282.191 72.5345C281.194 72.5254 280.207 72.7255 279.288 73.1235C278.369 73.5215 277.536 74.1087 276.845 74.8495C276.152 75.59 275.613 76.4687 275.261 77.4316C274.907 78.3945 274.747 79.4218 274.79 80.451C274.833 81.4799 275.079 82.4891 275.511 83.417C275.944 84.3448 276.554 85.172 277.306 85.8479C276.63 85.0063 276.139 84.0248 275.866 82.9695C275.62 82.1217 275.37 81.0358 275.448 80.0703Z" fill="#133133"/>
<g opacity="0.05">
<path opacity="0.05" d="M281.525 85.594L281.614 84.5107C280.434 84.3511 279.877 83.8827 279.996 82.4174C280.019 82.0997 280.067 81.7847 280.14 81.4754L281.634 81.6062C281.604 81.7478 281.583 81.8909 281.571 82.0354C281.52 82.6738 281.53 83.0402 282.138 83.082C282.745 83.1239 282.814 82.9172 282.882 82.0956C282.912 81.6926 282.925 81.5539 282.725 81.3393C282.317 80.871 281.237 80.4811 280.743 80.0467C280.3 79.6725 280.237 79.1911 280.335 77.8958C280.457 76.4069 280.928 75.9438 282.305 75.9935L282.376 75.1326L283.224 75.2059L283.153 76.0667C284.418 76.2316 284.821 76.7314 284.714 78.0528C284.692 78.3362 284.651 78.6177 284.59 78.8954L283.11 78.7671C283.135 78.6112 283.153 78.4539 283.163 78.2962C283.208 77.71 283.163 77.4117 282.588 77.362C282.102 77.3201 281.955 77.4771 281.897 78.1732C281.839 78.8692 281.874 78.9582 282.315 79.2198C282.793 79.4998 283.267 79.6935 283.679 79.9394C284.259 80.2979 284.654 80.4628 284.537 81.9072C284.373 83.922 283.953 84.5866 282.464 84.5709L282.373 85.6673L281.525 85.594Z" fill="#133133"/>
</g>
<path d="M346.668 284.445H44.6902C44.5895 284.445 44.4928 284.403 44.4217 284.33C44.3505 284.256 44.3105 284.157 44.3105 284.052C44.3105 283.948 44.3505 283.848 44.4217 283.775C44.4928 283.702 44.5895 283.66 44.6902 283.66H346.668C346.769 283.66 346.866 283.702 346.936 283.775C347.007 283.848 347.048 283.948 347.048 284.052C347.048 284.157 347.007 284.256 346.936 284.33C346.866 284.403 346.769 284.445 346.668 284.445Z" fill="#B2B6BB"/>
<path d="M198.097 277.139H282.859C284.661 277.139 286.393 277.88 287.668 279.198C288.944 280.517 289.66 282.304 289.66 284.17H192.268V283.165C192.267 282.375 192.417 281.59 192.709 280.857C193.002 280.127 193.431 279.463 193.973 278.903C194.514 278.343 195.157 277.898 195.865 277.597C196.573 277.293 197.331 277.139 198.097 277.139Z" fill="#133133"/>
<path opacity="0.3" d="M198.097 277.139H282.859C284.661 277.139 286.393 277.88 287.668 279.198C288.944 280.517 289.66 282.304 289.66 284.17H192.268V283.165C192.267 282.375 192.417 281.59 192.709 280.857C193.002 280.127 193.431 279.463 193.973 278.903C194.514 278.343 195.157 277.898 195.865 277.597C196.573 277.293 197.331 277.139 198.097 277.139Z" fill="#133133"/>
<path d="M258.476 263.582H226.43V280.653H258.476V263.582Z" fill="#133133"/>
<path d="M156.938 127.432H328.248C329.665 127.432 331.025 128.014 332.027 129.05C333.029 130.087 333.594 131.492 333.594 132.958V258.035C333.594 259.501 333.029 260.908 332.027 261.944C331.025 262.98 329.663 263.564 328.245 263.564H156.938C155.52 263.564 154.16 262.98 153.158 261.944C152.155 260.909 151.592 259.503 151.592 258.037V132.961C151.592 131.495 152.155 130.089 153.157 129.052C154.16 128.015 155.52 127.432 156.938 127.432Z" fill="#133133"/>
<g opacity="0.3">
<path opacity="0.3" d="M156.938 127.432H328.248C329.665 127.432 331.025 128.014 332.027 129.05C333.029 130.087 333.594 131.492 333.594 132.958V258.035C333.594 259.501 333.029 260.908 332.027 261.944C331.025 262.98 329.663 263.564 328.245 263.564H156.938C155.52 263.564 154.16 262.98 153.158 261.944C152.155 260.909 151.592 259.503 151.592 258.037V132.961C151.592 131.495 152.155 130.089 153.157 129.052C154.16 128.015 155.52 127.432 156.938 127.432Z" fill="#133133"/>
</g>
<path d="M154.026 127.432H325.336C326.753 127.432 328.113 128.014 329.115 129.05C330.117 130.087 330.682 131.492 330.682 132.958V258.035C330.682 258.761 330.543 259.48 330.274 260.151C330.006 260.821 329.611 261.431 329.115 261.944C328.619 262.457 328.029 262.865 327.379 263.142C326.731 263.42 326.035 263.564 325.333 263.564H154.026C152.608 263.564 151.248 262.98 150.246 261.944C149.243 260.909 148.68 259.503 148.68 258.037V132.961C148.68 131.495 149.243 130.089 150.245 129.052C151.248 128.015 152.608 127.432 154.026 127.432Z" fill="#133133"/>
<path opacity="0.3" d="M258.476 263.582H226.43V280.653H258.476V263.582Z" fill="#133133"/>
<path d="M255.704 263.582H223.658V280.653H255.704V263.582Z" fill="#133133"/>
<path opacity="0.3" d="M255.655 263.582H223.598V266.594H255.655V263.582Z" fill="#133133"/>
<path d="M198.197 278.152H281.154C282.698 278.152 284.178 278.785 285.269 279.915C286.363 281.043 286.975 282.574 286.975 284.17H192.375C192.375 282.574 192.988 281.043 194.08 279.915C195.172 278.785 196.653 278.152 198.197 278.152Z" fill="#133133"/>
<path d="M239.506 258.812C241.317 258.812 242.784 257.295 242.784 255.423C242.784 253.552 241.317 252.034 239.506 252.034C237.696 252.034 236.229 253.552 236.229 255.423C236.229 257.295 237.696 258.812 239.506 258.812Z" fill="#868A91"/>
<path opacity="0.2" d="M239.507 252.034C239.345 252.036 239.182 252.049 239.021 252.074C239.799 252.193 240.508 252.597 241.021 253.211C241.534 253.826 241.816 254.611 241.816 255.423C241.816 256.235 241.534 257.02 241.021 257.635C240.508 258.25 239.799 258.653 239.021 258.772C239.182 258.797 239.345 258.811 239.507 258.812C240.377 258.812 241.211 258.455 241.825 257.819C242.44 257.184 242.785 256.322 242.785 255.423C242.785 254.524 242.44 253.663 241.825 253.027C241.211 252.392 240.377 252.034 239.507 252.034Z" fill="#133133"/>
<path d="M155.485 131.273H323.879C324.529 131.273 325.155 131.54 325.615 132.016C326.076 132.492 326.334 133.138 326.334 133.811V247.516H153.029V133.811C153.029 133.138 153.288 132.492 153.748 132.016C154.209 131.54 154.833 131.273 155.485 131.273Z" fill="white"/>
<path d="M172.325 162.053H166.549V228.734H172.325V162.053Z" fill="#4CA02F"/>
<path d="M183.476 184.702H177.699V228.736H183.476V184.702Z" fill="#4CA02F"/>
<path d="M194.628 170.342H188.852V229.073H194.628V170.342Z" fill="#4CA02F"/>
<path d="M205.778 164.63H200.002V228.736H205.778V164.63Z" fill="#4CA02F"/>
<path d="M216.929 186.058H211.152V228.736H216.929V186.058Z" fill="#4CA02F"/>
<path d="M228.079 194.426H222.303V228.736H228.079V194.426Z" fill="#4CA02F"/>
<path d="M239.231 168.898H233.455V228.736H239.231V168.898Z" fill="#4CA02F"/>
<path d="M250.382 179.686H244.605V228.736H250.382V179.686Z" fill="#4CA02F"/>
<path d="M261.532 171.065H255.756V228.736H261.532V171.065Z" fill="#4CA02F"/>
<path d="M272.681 189.447H266.904V228.736H272.681V189.447Z" fill="#4CA02F"/>
<path d="M294.923 168.898H289.146V228.736H294.923V168.898Z" fill="#4CA02F"/>
<path d="M318.606 207.397H312.83V227.872H318.606V207.397Z" fill="#4CA02F"/>
<path d="M307.061 189.447H301.285V228.736H307.061V189.447Z" fill="#4CA02F"/>
<path d="M283.835 181.971H278.059V228.736H283.835V181.971Z" fill="#4CA02F"/>
<g opacity="0.2">
<path opacity="0.2" d="M172.083 161.804H166.307V228.484H172.083V161.804Z" fill="#133133"/>
</g>
<g opacity="0.2">
<path opacity="0.2" d="M183.231 184.451H177.455V228.485H183.231V184.451Z" fill="#133133"/>
</g>
<g opacity="0.2">
<path opacity="0.2" d="M194.386 170.091H188.609V228.822H194.386V170.091Z" fill="#133133"/>
</g>
<g opacity="0.2">
<path opacity="0.2" d="M205.536 164.379H199.76V228.484H205.536V164.379Z" fill="#133133"/>
</g>
<g opacity="0.2">
<path opacity="0.2" d="M216.684 185.807H210.908V228.485H216.684V185.807Z" fill="#133133"/>
</g>
<g opacity="0.2">
<path opacity="0.2" d="M227.835 194.175H222.059V228.485H227.835V194.175Z" fill="#133133"/>
</g>
<g opacity="0.2">
<path opacity="0.2" d="M238.987 168.647H233.211V228.485H238.987V168.647Z" fill="#133133"/>
</g>
<g opacity="0.2">
<path opacity="0.2" d="M250.138 179.435H244.361V228.485H250.138V179.435Z" fill="#133133"/>
</g>
<g opacity="0.2">
<path opacity="0.2" d="M261.288 170.813H255.512V228.484H261.288V170.813Z" fill="#133133"/>
</g>
<g opacity="0.2">
<path opacity="0.2" d="M272.438 189.195H266.662V228.484H272.438V189.195Z" fill="#133133"/>
</g>
<g opacity="0.2">
<path opacity="0.2" d="M294.681 168.647H288.904V228.485H294.681V168.647Z" fill="#133133"/>
</g>
<g opacity="0.2">
<path opacity="0.2" d="M318.362 207.146H312.586V227.621H318.362V207.146Z" fill="#133133"/>
</g>
<g opacity="0.2">
<path opacity="0.2" d="M306.817 189.195H301.041V228.484H306.817V189.195Z" fill="#133133"/>
</g>
<g opacity="0.2">
<path opacity="0.2" d="M283.591 181.72H277.814V228.485H283.591V181.72Z" fill="#133133"/>
</g>
<path d="M318.56 233.705H159.975V148.344C159.964 148.305 159.962 148.264 159.969 148.224C159.976 148.184 159.992 148.147 160.016 148.114C160.039 148.081 160.07 148.055 160.105 148.037C160.14 148.019 160.179 148.009 160.218 148.009C160.257 148.009 160.296 148.019 160.331 148.037C160.366 148.055 160.397 148.081 160.421 148.114C160.444 148.147 160.46 148.184 160.467 148.224C160.474 148.264 160.472 148.305 160.461 148.344V233.205H318.568C318.606 233.193 318.646 233.19 318.684 233.197C318.725 233.204 318.76 233.22 318.793 233.244C318.826 233.269 318.851 233.301 318.869 233.337C318.887 233.374 318.897 233.414 318.897 233.455C318.897 233.496 318.887 233.537 318.869 233.573C318.851 233.61 318.826 233.642 318.793 233.666C318.76 233.69 318.725 233.707 318.684 233.713C318.646 233.72 318.606 233.717 318.568 233.705H318.56Z" fill="#133133"/>
<path d="M170.168 179.728C170.784 178.897 171.472 178.125 172.223 177.423C172.608 177.086 172.982 176.727 173.385 176.416C173.585 176.256 173.782 176.091 173.985 175.934L174.605 175.482C176.268 174.285 178.05 173.277 179.921 172.475C183.671 170.824 187.733 170.067 191.805 170.261C195.886 170.523 199.838 171.843 203.297 174.097C203.742 174.359 204.145 174.678 204.563 174.974C204.98 175.27 205.403 175.568 205.788 175.911L206.97 176.908C207.347 177.261 207.714 177.625 208.086 177.983L208.64 178.522L209.162 179.098L210.202 180.252C210.534 180.649 210.848 181.06 211.172 181.466C211.496 181.871 211.83 182.267 212.116 182.701L213.009 183.978C213.156 184.192 213.313 184.399 213.45 184.619L213.86 185.284L215.493 187.932C216.032 188.811 216.586 189.693 217.11 190.588C217.634 191.482 218.155 192.383 218.667 193.285C220.709 196.896 222.717 200.536 224.919 204.014C227.121 207.491 229.554 210.867 232.477 213.727C233.929 215.161 235.544 216.407 237.287 217.44C239.025 218.46 240.925 219.151 242.898 219.481C244.876 219.787 246.891 219.713 248.842 219.261C249.819 219.038 250.779 218.742 251.715 218.377C252.65 218.006 253.565 217.582 254.456 217.107C256.233 216.14 257.926 215.016 259.519 213.748C261.075 212.44 262.495 210.968 263.756 209.354C266.31 206.136 268.436 202.569 270.573 199.021C272.709 195.473 274.828 191.896 277.235 188.52C278.43 186.825 279.708 185.193 281.062 183.63C282.416 182.065 283.874 180.599 285.423 179.242C288.517 176.505 292.03 174.324 295.819 172.786C299.616 171.294 303.603 170.386 307.655 170.091C311.698 169.795 315.755 169.914 319.775 170.444C315.755 169.955 311.7 169.877 307.665 170.212C303.633 170.546 299.672 171.489 295.903 173.009C292.151 174.558 288.676 176.744 285.621 179.477C284.089 180.835 282.652 182.302 281.318 183.865C279.979 185.426 278.718 187.055 277.539 188.748C275.164 192.124 273.058 195.693 270.932 199.249C268.806 202.805 266.677 206.387 264.098 209.645C262.819 211.289 261.376 212.79 259.794 214.124C259.392 214.449 258.984 214.773 258.564 215.066L257.939 215.516C257.729 215.666 257.511 215.804 257.299 215.948C256.448 216.527 255.562 217.047 254.664 217.544C253.76 218.033 252.83 218.47 251.879 218.853C250.922 219.227 249.941 219.532 248.943 219.763C246.935 220.232 244.861 220.31 242.825 219.996C240.795 219.655 238.84 218.941 237.054 217.887C235.282 216.833 233.64 215.56 232.166 214.096C229.207 211.189 226.774 207.789 224.557 204.286C222.34 200.782 220.347 197.127 218.312 193.516C217.806 192.612 217.29 191.713 216.765 190.82C216.244 189.926 215.695 189.057 215.158 188.164L213.541 185.514L213.131 184.841C212.997 184.622 212.84 184.415 212.698 184.203L211.82 182.931C211.536 182.499 211.202 182.11 210.891 181.701C210.579 181.293 210.26 180.89 209.934 180.492L208.921 179.344L208.415 178.773L207.868 178.234C207.501 177.878 207.142 177.517 206.77 177.164L205.605 176.172C205.226 175.83 204.808 175.542 204.398 175.238C203.988 174.935 203.591 174.618 203.15 174.364C199.741 172.116 195.841 170.789 191.808 170.505C187.763 170.276 183.722 170.992 179.981 172.598C178.105 173.377 176.316 174.364 174.646 175.542L174.023 175.987C173.818 176.141 173.621 176.303 173.421 176.463C173.011 176.769 172.636 177.122 172.249 177.457C171.49 178.148 170.794 178.908 170.168 179.728Z" fill="#133133"/>
<path d="M292.226 175.926C292.821 175.926 293.302 175.428 293.302 174.814C293.302 174.2 292.821 173.702 292.226 173.702C291.631 173.702 291.15 174.2 291.15 174.814C291.15 175.428 291.631 175.926 292.226 175.926Z" fill="#133133"/>
<path d="M247.349 220.902C247.943 220.902 248.425 220.404 248.425 219.79C248.425 219.176 247.943 218.678 247.349 218.678C246.755 218.678 246.273 219.176 246.273 219.79C246.273 220.404 246.755 220.902 247.349 220.902Z" fill="#133133"/>
<path d="M202.949 174.953C203.543 174.953 204.025 174.455 204.025 173.841C204.025 173.226 203.543 172.729 202.949 172.729C202.354 172.729 201.873 173.226 201.873 173.841C201.873 174.455 202.354 174.953 202.949 174.953Z" fill="#133133"/>
<path d="M236.118 87.9276H115.309V185.124H236.118V87.9276Z" fill="#F4F4F4" stroke="#868A91" stroke-miterlimit="10"/>
<path d="M139.998 100.697H120.441V101.822H139.998V100.697Z" fill="#B2B6BB"/>
<path d="M130.106 103.33H120.441V104.455H130.106V103.33Z" fill="#B2B6BB"/>
<path d="M220.215 173.938V177.672H221.235V173.938H220.215Z" fill="#61656D"/>
<path d="M204.443 173.938V177.672H205.463V173.938H204.443Z" fill="#61656D"/>
<path d="M188.674 173.938V177.672H189.694V173.938H188.674Z" fill="#61656D"/>
<path d="M172.902 173.938V177.672H173.922V173.938H172.902Z" fill="#61656D"/>
<path d="M157.133 173.938V177.672H158.153V173.938H157.133Z" fill="#61656D"/>
<path d="M141.361 173.938V177.672H142.381V173.938H141.361Z" fill="#61656D"/>
<path d="M135.136 171.159H131.592V172.213H135.136V171.159Z" fill="#61656D"/>
<path d="M135.136 157.063H131.592V158.117H135.136V157.063Z" fill="#61656D"/>
<path d="M135.136 130.535H131.592V131.589H135.136V130.535Z" fill="#61656D"/>
<path d="M135.136 117.206H131.592V118.26H135.136V117.206Z" fill="#61656D"/>
<path d="M135.315 143.799H131.771V144.854H135.315V143.799Z" fill="#61656D"/>
<path d="M141.27 169.359V157.584L148.357 146.196L153.166 150.016L163.038 134.146L168.86 138.39L176.96 123.75L183.541 129.297L193.471 109.9L204.103 131.605L212.709 120.743L222.834 117.745V169.372L141.27 169.359Z" fill="#4CA02F"/>
<path d="M141.27 169.359V157.584L148.357 146.196L153.166 150.016L163.038 134.146L168.86 138.39L176.96 123.75L183.541 129.297L193.471 109.9L204.103 131.605L212.709 120.743L222.834 117.745V169.372L141.27 169.359Z" fill="#4CA02F"/>
<path d="M223.863 113.563H223.683H223.154L221.099 113.582L213.32 113.613L213.374 113.587C211.095 116.646 208.283 120.456 205.02 124.839L204.993 124.878H204.944L184.077 124.899L184.178 124.841L175.415 139.952L166.809 154.752L166.718 154.909L166.611 154.76L155.304 138.696H155.469L145.169 155.315C143.934 157.296 142.967 158.847 142.301 159.91L141.542 161.111C141.37 161.372 141.273 161.516 141.273 161.516C141.273 161.516 141.352 161.37 141.527 161.095L142.256 159.878L145.075 155.249L155.302 138.587L155.38 138.458L155.466 138.581L166.809 154.619H166.611L175.218 139.814L183.998 124.721L184.034 124.663H184.1L204.967 124.684L204.891 124.723L213.28 113.503L213.3 113.477H213.333L221.112 113.508L223.167 113.527H223.696C223.802 113.548 223.863 113.563 223.863 113.563Z" fill="#133133"/>
<path d="M158.799 142.41C158.808 142.575 158.768 142.74 158.685 142.882C158.602 143.024 158.48 143.138 158.334 143.207C158.188 143.277 158.026 143.3 157.867 143.273C157.709 143.245 157.562 143.17 157.445 143.056C157.329 142.941 157.248 142.794 157.214 142.631C157.179 142.469 157.193 142.3 157.253 142.146C157.312 141.992 157.415 141.86 157.549 141.767C157.681 141.674 157.839 141.624 157.999 141.625C158.206 141.621 158.405 141.7 158.555 141.847C158.705 141.994 158.792 142.196 158.799 142.41Z" fill="#263238"/>
<path d="M182.868 128.266C182.874 128.432 182.832 128.595 182.748 128.736C182.663 128.876 182.54 128.987 182.394 129.055C182.247 129.122 182.085 129.143 181.927 129.115C181.77 129.086 181.624 129.009 181.509 128.894C181.394 128.78 181.314 128.632 181.281 128.47C181.248 128.308 181.262 128.139 181.323 127.986C181.383 127.833 181.486 127.701 181.619 127.609C181.751 127.517 181.908 127.468 182.068 127.468C182.171 127.466 182.274 127.485 182.37 127.524C182.466 127.563 182.554 127.621 182.628 127.695C182.703 127.77 182.762 127.858 182.803 127.956C182.844 128.054 182.866 128.159 182.868 128.266Z" fill="#263238"/>
<path d="M200.778 125.589C201.22 125.589 201.578 125.232 201.578 124.791C201.578 124.351 201.22 123.993 200.778 123.993C200.337 123.993 199.979 124.351 199.979 124.791C199.979 125.232 200.337 125.589 200.778 125.589Z" fill="#263238"/>
<path d="M136.941 108.853V172.177H222.751" stroke="#133133" stroke-miterlimit="10" stroke-linecap="round"/>
<path d="M140.484 117.75H223.762" stroke="#133133" stroke-miterlimit="10" stroke-linecap="round"/>
<path d="M140.611 131.226H223.889" stroke="#133133" stroke-miterlimit="10" stroke-linecap="round"/>
<path d="M140.738 144.702H224.016" stroke="#133133" stroke-miterlimit="10" stroke-linecap="round"/>
<path d="M140.863 158.177H224.141" stroke="#133133" stroke-miterlimit="10" stroke-linecap="round"/>
<path d="M235.913 87.92H115.426V95.77H235.913V87.92Z" fill="#868A91"/>
<path d="M120.357 91.929C120.357 92.1195 120.302 92.3058 120.2 92.4641C120.097 92.6227 119.952 92.7459 119.781 92.8187C119.611 92.8917 119.424 92.9105 119.243 92.8731C119.062 92.8357 118.896 92.7438 118.766 92.6088C118.636 92.4741 118.547 92.3021 118.512 92.115C118.476 91.9282 118.495 91.7346 118.566 91.5585C118.637 91.3826 118.756 91.2324 118.91 91.127C119.063 91.0215 119.244 90.9655 119.428 90.9661C119.55 90.9661 119.671 90.9909 119.784 91.0393C119.897 91.0877 120 91.1587 120.086 91.2481C120.172 91.3376 120.241 91.4439 120.287 91.5606C120.333 91.6775 120.357 91.8026 120.357 91.929Z" fill="white"/>
<path d="M123.568 91.929C123.568 92.1192 123.514 92.3055 123.411 92.4638C123.309 92.6222 123.163 92.7457 122.993 92.8187C122.823 92.8914 122.636 92.9105 122.455 92.8734C122.274 92.8362 122.108 92.7444 121.978 92.6099C121.848 92.4751 121.759 92.3034 121.723 92.1169C121.687 91.9301 121.705 91.7364 121.776 91.5603C121.846 91.3845 121.966 91.234 122.119 91.1283C122.272 91.0223 122.452 90.9661 122.637 90.9661C122.759 90.9655 122.88 90.9904 122.993 91.0386C123.107 91.087 123.21 91.1579 123.296 91.2474C123.383 91.3369 123.451 91.4431 123.498 91.5601C123.545 91.677 123.569 91.8024 123.568 91.929Z" fill="white"/>
<path d="M126.777 91.929C126.777 92.1195 126.722 92.3058 126.62 92.4641C126.518 92.6227 126.372 92.7459 126.201 92.8187C126.031 92.8917 125.844 92.9105 125.663 92.8731C125.482 92.8357 125.316 92.7438 125.186 92.6088C125.056 92.4741 124.967 92.3021 124.932 92.115C124.896 91.9282 124.915 91.7346 124.986 91.5585C125.056 91.3826 125.176 91.2324 125.33 91.127C125.484 91.0215 125.664 90.9655 125.848 90.9661C125.97 90.9661 126.091 90.9909 126.204 91.0393C126.317 91.0877 126.42 91.1587 126.506 91.2481C126.592 91.3376 126.661 91.4439 126.707 91.5606C126.754 91.6775 126.777 91.8026 126.777 91.929Z" fill="white"/>
<path d="M105.596 275.893H74.6035V279.96H105.596V275.893Z" fill="#61656D"/>
<path opacity="0.2" d="M80.4363 275.893H74.541V279.96H80.4363V275.893Z" fill="#133133"/>
<path opacity="0.2" d="M101.907 275.893H97.584V279.96H101.907V275.893Z" fill="white"/>
<path d="M105.596 267.761H74.6035V271.827H105.596V267.761Z" fill="#61656D"/>
<path opacity="0.2" d="M80.4363 267.761H74.541V271.827H80.4363V267.761Z" fill="#133133"/>
<path opacity="0.2" d="M101.907 267.761H97.584V271.827H101.907V267.761Z" fill="white"/>
<path d="M105.596 255.562H74.6035V259.628H105.596V255.562Z" fill="#61656D"/>
<path opacity="0.2" d="M80.4363 255.562H74.541V259.628H80.4363V255.562Z" fill="#133133"/>
<path opacity="0.2" d="M101.907 255.562H97.584V259.628H101.907V255.562Z" fill="white"/>
<path d="M109.284 279.96H78.291V284.026H109.284V279.96Z" fill="#61656D"/>
<path opacity="0.2" d="M84.3445 279.735H78.4492V283.801H84.3445V279.735Z" fill="#133133"/>
<path opacity="0.2" d="M105.597 279.96H101.273V284.026H105.597V279.96Z" fill="white"/>
<path d="M109.284 263.695H78.291V267.761H109.284V263.695Z" fill="#61656D"/>
<path opacity="0.2" d="M84.3445 263.695H78.4492V267.761H84.3445V263.695Z" fill="#133133"/>
<path opacity="0.2" d="M105.597 263.695H101.273V267.761H105.597V263.695Z" fill="white"/>
<path d="M109.284 259.629H78.291V263.695H109.284V259.629Z" fill="#61656D"/>
<path opacity="0.2" d="M84.3445 259.629H78.4492V263.695H84.3445V259.629Z" fill="#133133"/>
<path opacity="0.2" d="M105.597 259.629H101.273V263.695H105.597V259.629Z" fill="white"/>
<path d="M109.284 271.827H78.291V275.893H109.284V271.827Z" fill="#61656D"/>
<path opacity="0.2" d="M84.3445 271.827H78.4492V275.893H84.3445V271.827Z" fill="#133133"/>
<path opacity="0.2" d="M105.597 271.827H101.273V275.893H105.597V271.827Z" fill="white"/>
<g opacity="0.3">
<path opacity="0.3" d="M105.596 279.832H78.291V280.088H105.596V279.832Z" fill="#133133"/>
</g>
<g opacity="0.3">
<path opacity="0.3" d="M105.596 275.765H78.291V276.022H105.596V275.765Z" fill="#133133"/>
</g>
<g opacity="0.3">
<path opacity="0.3" d="M105.596 271.699H78.291V271.955H105.596V271.699Z" fill="#133133"/>
</g>
<g opacity="0.3">
<path opacity="0.3" d="M105.596 267.633H78.291V267.889H105.596V267.633Z" fill="#133133"/>
</g>
<g opacity="0.3">
<path opacity="0.3" d="M109.284 263.566H78.291V263.823H109.284V263.566Z" fill="#133133"/>
</g>
<g opacity="0.3">
<path opacity="0.3" d="M109.284 259.5H78.291V259.757H109.284V259.5Z" fill="#133133"/>
</g>
<path d="M74.7062 283.338C81.9091 280.781 85.7422 272.67 83.2676 265.225C80.7931 257.779 72.948 253.817 65.745 256.375C58.5421 258.933 54.709 267.041 57.1836 274.488C59.6581 281.935 67.5032 285.897 74.7062 283.338Z" fill="#61656D"/>
<path d="M306.951 270.302C307.25 270.438 307.518 270.634 307.741 270.88C307.966 271.126 308.138 271.416 308.252 271.733C308.475 272.369 308.551 273.049 308.48 273.722C308.376 275.03 307.705 276.338 306.961 277.411C305.878 276.493 305.587 274.842 305.488 273.994C305.334 272.654 305.842 270.134 306.943 270.302" fill="#4CA02F"/>
<path d="M308.4 279.685C308.279 279.329 308.251 278.945 308.322 278.576C308.39 278.204 308.552 277.859 308.792 277.573C309.038 277.293 309.334 277.066 309.663 276.906C309.992 276.744 310.352 276.655 310.716 276.637C310.883 276.61 311.053 276.624 311.215 276.673C311.377 276.72 311.526 276.807 311.653 276.922C311.751 277.047 311.817 277.199 311.843 277.361C311.865 277.521 311.848 277.686 311.789 277.838C311.668 278.141 311.473 278.405 311.222 278.604C310.395 279.321 309.466 279.858 308.4 279.685Z" fill="#4CA02F"/>
<path d="M305.863 279.722C305.711 278.942 305.382 278.209 304.904 277.584C304.425 276.961 303.808 276.464 303.107 276.137C302.75 275.975 302.286 275.875 302.003 276.155C301.719 276.435 301.8 276.922 301.955 277.293C302.289 278.065 302.836 278.717 303.527 279.17C304.218 279.62 305.023 279.85 305.84 279.829" fill="#4CA02F"/>
<path d="M306.846 272.29C306.912 273.24 306.97 274.19 307.013 275.14C307.056 276.09 307.089 277.04 307.122 277.992C307.154 278.945 307.165 279.892 307.172 280.844C307.18 281.797 307.172 282.747 307.142 283.699L306.972 277.995L306.899 275.145C306.874 274.193 306.858 273.243 306.846 272.29Z" fill="#133133"/>
<path d="M307.293 283.545C307.313 282.964 307.389 282.385 307.518 281.82C307.645 281.25 307.83 280.695 308.073 280.167C308.316 279.635 308.652 279.154 309.067 278.751C309.28 278.552 309.515 278.385 309.769 278.251C310.024 278.126 310.295 278.039 310.573 277.989C310.034 278.136 309.541 278.426 309.146 278.832C308.756 279.238 308.437 279.711 308.207 280.229C307.964 280.747 307.771 281.286 307.63 281.844C307.483 282.404 307.369 282.972 307.293 283.545Z" fill="#133133"/>
<path d="M306.996 283.545C306.92 282.972 306.806 282.406 306.659 281.849C306.52 281.292 306.325 280.753 306.082 280.235C305.852 279.716 305.533 279.243 305.143 278.837C304.748 278.432 304.255 278.141 303.713 277.995C303.994 278.042 304.265 278.131 304.52 278.256C304.773 278.39 305.009 278.56 305.222 278.756C305.637 279.159 305.973 279.641 306.216 280.172C306.459 280.7 306.644 281.255 306.771 281.825C306.9 282.391 306.973 282.966 306.996 283.545Z" fill="#133133"/>
<path d="M155.584 270.04C155.883 270.176 156.152 270.372 156.375 270.618C156.599 270.864 156.772 271.155 156.885 271.471C157.107 272.107 157.185 272.787 157.113 273.46C157.009 274.768 156.338 276.077 155.594 277.149C154.511 276.231 154.22 274.58 154.121 273.732C153.966 272.392 154.475 269.873 155.576 270.04" fill="#4CA02F"/>
<path d="M157.03 279.423C156.909 279.068 156.882 278.683 156.951 278.314C157.02 277.942 157.183 277.597 157.423 277.312C157.667 277.032 157.963 276.804 158.294 276.644C158.624 276.482 158.982 276.393 159.346 276.375C159.513 276.349 159.683 276.362 159.845 276.412C160.007 276.459 160.156 276.545 160.283 276.66C160.383 276.786 160.449 276.938 160.473 277.1C160.497 277.259 160.478 277.424 160.42 277.576C160.299 277.88 160.103 278.144 159.853 278.343C159.025 279.06 158.096 279.596 157.03 279.423Z" fill="#4CA02F"/>
<path d="M154.494 279.46C154.343 278.68 154.014 277.948 153.535 277.322C153.055 276.699 152.439 276.202 151.737 275.875C151.381 275.713 150.917 275.613 150.634 275.893C150.35 276.173 150.431 276.66 150.586 277.032C150.919 277.804 151.466 278.455 152.157 278.908C152.849 279.358 153.654 279.588 154.471 279.567" fill="#4CA02F"/>
<path d="M155.477 272.029C155.542 272.979 155.601 273.928 155.644 274.878C155.687 275.828 155.72 276.778 155.753 277.73C155.785 278.683 155.796 279.63 155.803 280.583C155.811 281.535 155.803 282.485 155.773 283.437L155.603 277.733L155.53 274.883C155.504 273.931 155.489 272.981 155.477 272.029Z" fill="#133133"/>
<path d="M155.926 283.283C155.946 282.702 156.022 282.124 156.151 281.559C156.277 280.988 156.463 280.433 156.705 279.905C156.948 279.374 157.286 278.892 157.7 278.489C157.912 278.29 158.147 278.123 158.401 277.989C158.657 277.864 158.928 277.777 159.206 277.728C158.667 277.874 158.174 278.165 157.779 278.57C157.388 278.976 157.07 279.45 156.84 279.968C156.597 280.486 156.403 281.025 156.262 281.582C156.115 282.142 156.003 282.71 155.926 283.283Z" fill="#133133"/>
<path d="M155.627 283.283C155.549 282.71 155.437 282.145 155.29 281.587C155.149 281.03 154.956 280.491 154.713 279.973C154.482 279.455 154.164 278.981 153.774 278.576C153.378 278.17 152.884 277.88 152.344 277.733C152.623 277.78 152.895 277.869 153.151 277.995C153.405 278.128 153.641 278.298 153.852 278.494C154.267 278.897 154.604 279.379 154.847 279.91C155.089 280.439 155.275 280.993 155.402 281.564C155.529 282.129 155.605 282.705 155.627 283.283Z" fill="#133133"/>
<path d="M132.275 230.018C132.526 230.018 132.771 229.942 132.979 229.798C133.187 229.654 133.349 229.45 133.445 229.211C133.541 228.972 133.566 228.708 133.517 228.455C133.468 228.201 133.347 227.968 133.17 227.785C132.994 227.602 132.768 227.477 132.522 227.427C132.277 227.376 132.022 227.402 131.791 227.501C131.56 227.6 131.362 227.768 131.223 227.983C131.084 228.198 131.01 228.451 131.01 228.71C131.01 229.057 131.143 229.39 131.381 229.635C131.618 229.88 131.94 230.018 132.275 230.018Z" fill="#B2B6BB"/>
<path opacity="0.15" d="M131.809 228.697C131.809 228.424 131.891 228.157 132.044 227.935C132.198 227.712 132.415 227.545 132.665 227.457C132.532 227.405 132.392 227.379 132.25 227.381C131.912 227.381 131.588 227.519 131.35 227.766C131.111 228.013 130.977 228.348 130.977 228.697C130.977 229.046 131.111 229.381 131.35 229.628C131.588 229.874 131.912 230.013 132.25 230.013C132.392 230.013 132.532 229.988 132.665 229.937C132.417 229.845 132.203 229.677 132.05 229.455C131.897 229.233 131.813 228.969 131.809 228.697Z" fill="#133133"/>
<path d="M132.275 250.368C132.526 250.368 132.771 250.291 132.979 250.148C133.187 250.004 133.349 249.799 133.445 249.56C133.541 249.321 133.566 249.058 133.517 248.804C133.468 248.551 133.347 248.317 133.17 248.135C132.994 247.952 132.768 247.827 132.522 247.776C132.277 247.726 132.022 247.752 131.791 247.851C131.56 247.95 131.362 248.118 131.223 248.333C131.084 248.548 131.01 248.801 131.01 249.06C131.01 249.407 131.143 249.739 131.381 249.985C131.618 250.23 131.94 250.368 132.275 250.368Z" fill="#B2B6BB"/>
<path opacity="0.15" d="M131.809 249.052C131.809 248.779 131.891 248.512 132.044 248.29C132.198 248.067 132.415 247.9 132.665 247.811C132.532 247.759 132.391 247.733 132.25 247.736C132.069 247.741 131.891 247.787 131.729 247.869C131.567 247.951 131.424 248.069 131.309 248.213C131.194 248.358 131.111 248.526 131.064 248.706C131.018 248.887 131.009 249.076 131.039 249.26C131.069 249.444 131.137 249.62 131.238 249.775C131.339 249.93 131.471 250.06 131.625 250.158C131.779 250.256 131.951 250.319 132.131 250.342C132.31 250.365 132.492 250.348 132.665 250.292C132.415 250.204 132.198 250.036 132.044 249.814C131.891 249.592 131.809 249.325 131.809 249.052Z" fill="#133133"/>
<path d="M126.687 278.916L142.575 279.319L136.247 274.637C135.724 274.253 135.293 273.75 134.986 273.167C134.679 272.583 134.504 271.934 134.475 271.272L134.255 266.133L125.613 266.159L126.687 278.916Z" fill="#F2B3C1"/>
<path opacity="0.15" d="M128.448 272.918V272.819C128.422 272.544 128.499 272.272 128.663 272.055C128.827 271.838 129.065 271.694 129.329 271.654L134.392 270.896L134.343 269.849H125.879L126.638 278.555L133.569 277.77L131.291 276.835C130.513 276.519 129.836 275.982 129.334 275.292C128.832 274.601 128.526 273.779 128.448 272.918Z" fill="#133133"/>
<path d="M98.0664 278.612H105.215L106.538 266.11L98.0917 266.133L98.0664 278.612Z" fill="#F2B3C1"/>
<path opacity="0.15" d="M99.8535 276.511L100.026 272.665C100.037 272.419 100.132 272.186 100.293 272.005C100.454 271.825 100.671 271.709 100.907 271.678L106.048 270.867L106.172 269.804L98.1146 269.828L98.0918 278.688L99.8535 276.511Z" fill="#133133"/>
<path d="M97.5996 167.634V269.854H106.879L114.959 186.514C114.959 186.236 115.066 185.97 115.256 185.773C115.445 185.577 115.703 185.467 115.971 185.467C116.24 185.467 116.497 185.577 116.688 185.773C116.877 185.97 116.984 186.236 116.984 186.514L125.577 269.854H134.855L131.508 167.634H97.5996Z" fill="#133133"/>
<path d="M98.6043 274.208L98.8245 273.981C99.6507 273.151 100.761 272.693 101.913 272.709C103.064 272.722 104.163 273.206 104.97 274.057L105.092 274.208C105.497 274.643 105.724 275.224 105.727 275.828V276.788C105.725 277.348 105.811 277.903 105.98 278.434L106.74 281.051C106.934 281.682 107.033 282.338 107.033 283V283.33C107.021 283.581 106.915 283.817 106.736 283.987C106.558 284.157 106.322 284.248 106.079 284.241H97.283C97.162 284.246 97.0413 284.228 96.9276 284.186C96.8139 284.141 96.7094 284.076 96.6206 283.992C96.5315 283.908 96.4596 283.806 96.4089 283.691C96.3586 283.579 96.3302 283.456 96.3262 283.33V283.202C96.3277 282.435 96.4517 281.674 96.6932 280.949L97.5766 278.395C97.7806 277.806 97.8877 277.189 97.893 276.563L97.9183 275.831C97.9515 275.221 98.195 274.645 98.6043 274.208Z" fill="#3F4249"/>
<path d="M97.3574 269.854H107.247L107.444 267.761H97.3802L97.3574 269.854Z" fill="#133133"/>
<path opacity="0.3" d="M97.3574 269.854H101.504L101.602 267.761H97.3802L97.3574 269.854Z" fill="#133133"/>
<path opacity="0.5" d="M96.3262 283.191V283.32C96.3381 283.571 96.4449 283.806 96.6241 283.976C96.8031 284.146 97.0397 284.238 97.283 284.23H106.071C106.192 284.235 106.313 284.217 106.426 284.175C106.54 284.131 106.644 284.065 106.733 283.982C106.822 283.895 106.893 283.793 106.944 283.681C106.994 283.568 107.022 283.445 107.026 283.32V282.99C107.03 282.862 107.021 282.736 107 282.61H96.3262V283.191Z" fill="#133133"/>
<path d="M125.586 276.003V282.406C125.585 282.652 125.632 282.896 125.722 283.123C125.813 283.351 125.946 283.558 126.114 283.733C126.283 283.906 126.482 284.044 126.702 284.139C126.922 284.233 127.158 284.28 127.396 284.28H148.451C148.652 284.28 148.845 284.196 148.988 284.05C149.13 283.903 149.21 283.704 149.21 283.495C149.207 282.752 148.979 282.027 148.558 281.422C148.136 280.821 147.543 280.368 146.861 280.13L142.11 278.51L136.088 273.677C135.786 273.434 135.41 273.303 135.026 273.313C134.643 273.321 134.273 273.468 133.982 273.727L131.314 276.082C131.122 276.255 130.891 276.372 130.642 276.425C130.394 276.48 130.136 276.467 129.894 276.388L126.515 275.3C126.408 275.268 126.295 275.26 126.185 275.281C126.075 275.3 125.972 275.347 125.882 275.415C125.792 275.483 125.718 275.572 125.667 275.674C125.616 275.776 125.588 275.888 125.586 276.003Z" fill="#3F4249"/>
<path d="M127.394 284.28H148.449C148.651 284.28 148.844 284.196 148.987 284.05C149.129 283.903 149.209 283.704 149.209 283.495C149.214 283.231 149.181 282.964 149.11 282.71H125.607C125.678 283.147 125.896 283.545 126.223 283.832C126.55 284.12 126.965 284.28 127.394 284.28Z" fill="#133133"/>
<path d="M135.964 276.231C135.919 276.231 135.876 276.213 135.843 276.181C135.807 276.145 135.787 276.095 135.787 276.043C135.787 275.99 135.807 275.941 135.843 275.904L137.108 274.486C137.144 274.452 137.192 274.433 137.241 274.433C137.29 274.433 137.337 274.454 137.372 274.491C137.407 274.528 137.427 274.575 137.428 274.627C137.428 274.677 137.41 274.726 137.377 274.763L136.111 276.181C136.066 276.21 136.016 276.226 135.964 276.231Z" fill="white"/>
<path d="M136.969 277.042C136.924 277.042 136.881 277.024 136.848 276.992C136.813 276.956 136.793 276.904 136.793 276.854C136.793 276.801 136.813 276.749 136.848 276.713L138.113 275.297C138.131 275.279 138.152 275.263 138.175 275.252C138.198 275.242 138.223 275.234 138.249 275.234C138.274 275.234 138.3 275.239 138.323 275.25C138.347 275.258 138.368 275.273 138.386 275.292C138.405 275.31 138.419 275.334 138.428 275.357C138.438 275.381 138.443 275.407 138.442 275.433C138.442 275.462 138.436 275.485 138.426 275.511C138.415 275.535 138.4 275.556 138.382 275.574L137.116 276.992C137.071 277.019 137.021 277.037 136.969 277.042Z" fill="white"/>
<path d="M137.972 277.851C137.927 277.851 137.883 277.832 137.848 277.801C137.813 277.764 137.793 277.715 137.793 277.662C137.793 277.61 137.813 277.56 137.848 277.524L139.114 276.105C139.151 276.074 139.198 276.058 139.246 276.061C139.294 276.064 139.339 276.082 139.373 276.119C139.407 276.153 139.427 276.2 139.429 276.249C139.431 276.299 139.416 276.346 139.385 276.385L138.119 277.801C138.078 277.838 138.026 277.853 137.972 277.851Z" fill="white"/>
<path d="M103.501 276.359C103.467 276.364 103.433 276.354 103.405 276.333C102.9 276.084 102.348 275.956 101.788 275.956C101.229 275.956 100.677 276.084 100.172 276.333C100.121 276.354 100.065 276.351 100.014 276.33C99.9637 276.312 99.9222 276.273 99.8979 276.221C99.8736 276.171 99.8685 276.113 99.8832 276.058C99.8979 276.003 99.9313 275.959 99.9774 275.927C100.545 275.64 101.169 275.491 101.801 275.491C102.433 275.491 103.057 275.64 103.625 275.927C103.674 275.959 103.71 276.006 103.728 276.061C103.746 276.116 103.743 276.176 103.721 276.231C103.699 276.27 103.666 276.304 103.628 276.325C103.589 276.349 103.545 276.359 103.501 276.359Z" fill="white"/>
<path d="M103.5 277.524C103.466 277.529 103.431 277.518 103.403 277.497C102.899 277.249 102.347 277.118 101.787 277.118C101.228 277.118 100.676 277.249 100.171 277.497C100.146 277.521 100.116 277.539 100.083 277.547C100.05 277.558 100.015 277.56 99.9819 277.552C99.9485 277.547 99.9169 277.532 99.8898 277.511C99.8625 277.49 99.8407 277.461 99.8255 277.429C99.8103 277.398 99.8027 277.364 99.8027 277.327C99.803 277.293 99.8111 277.259 99.8263 277.228C99.8417 277.194 99.864 277.168 99.8911 277.147C99.9184 277.126 99.9503 277.11 99.9837 277.105C100.551 276.817 101.175 276.668 101.807 276.668C102.44 276.668 103.063 276.817 103.631 277.105C103.68 277.136 103.717 277.183 103.734 277.238C103.752 277.293 103.749 277.354 103.727 277.409C103.703 277.448 103.668 277.477 103.628 277.497C103.588 277.518 103.544 277.526 103.5 277.524Z" fill="white"/>
<path d="M103.499 278.675C103.465 278.678 103.431 278.67 103.403 278.649C102.898 278.4 102.346 278.272 101.787 278.272C101.228 278.272 100.676 278.4 100.171 278.649C100.145 278.662 100.117 278.67 100.089 278.672C100.06 278.675 100.032 278.67 100.005 278.662C99.9775 278.651 99.9522 278.636 99.9307 278.617C99.9092 278.599 99.8914 278.576 99.8785 278.547C99.8659 278.521 99.858 278.492 99.856 278.463C99.854 278.434 99.8578 278.403 99.8666 278.377C99.8758 278.348 99.8902 278.322 99.9089 278.301C99.9276 278.277 99.9504 278.259 99.976 278.246C100.543 277.958 101.167 277.806 101.8 277.806C102.432 277.806 103.056 277.958 103.624 278.246C103.673 278.275 103.71 278.322 103.727 278.379C103.745 278.434 103.742 278.494 103.72 278.549C103.697 278.589 103.665 278.62 103.626 278.644C103.587 278.665 103.544 278.675 103.499 278.675Z" fill="white"/>
<path opacity="0.3" d="M131.12 268.69L121.964 190.007C121.822 188.787 121.254 187.663 120.365 186.847C119.477 186.031 118.331 185.579 117.142 185.577H115.99C116.245 185.576 116.491 185.675 116.679 185.853C116.867 186.032 116.982 186.277 117.003 186.54L125.546 269.425L131.12 268.69Z" fill="#133133"/>
<path d="M125.34 269.854H135.212L135.065 267.761H125.143L125.34 269.854Z" fill="#133133"/>
<path d="M108.591 121.675L114.266 120.28L120.865 122.112V173.728H107.484L108.591 121.675Z" fill="white"/>
<path opacity="0.3" d="M125.34 269.854H131.215L130.995 267.761H125.143L125.34 269.854Z" fill="#133133"/>
<path d="M109.904 122.434C111.244 123.394 112.846 123.883 114.475 123.829C116.105 123.775 117.674 123.18 118.951 122.133H119.204C119.482 121.892 119.363 121.505 119.315 121.144L118.968 115.282C119.096 114.714 119.159 114.131 119.156 113.548C119.249 110.58 119.505 107.903 119.505 107.903C119.505 107.903 109.988 101.731 109.615 109.277L109.474 111.232L108.821 121.12C108.815 121.392 108.905 121.657 109.074 121.866L109.904 122.434Z" fill="#F2B3C1"/>
<path d="M120.353 108.361C120.989 108.361 121.612 108.166 122.141 107.8C122.671 107.435 123.084 106.915 123.327 106.307C123.571 105.698 123.635 105.029 123.511 104.384C123.386 103.738 123.079 103.145 122.629 102.679C122.179 102.214 121.605 101.897 120.981 101.768C120.356 101.64 119.709 101.706 119.12 101.958C118.532 102.21 118.029 102.636 117.676 103.184C117.322 103.731 117.133 104.375 117.133 105.033C117.133 105.47 117.216 105.903 117.377 106.307C117.539 106.711 117.776 107.078 118.075 107.387C118.374 107.696 118.729 107.941 119.12 108.109C119.511 108.276 119.93 108.362 120.353 108.361Z" fill="#133133"/>
<path d="M121.246 103.076C121.246 103.076 123.337 117.991 116.001 118.302C109.653 118.579 109.84 108.401 109.84 108.401L110.716 101.872L121.246 103.076Z" fill="#F2B3C1"/>
<path d="M120.167 103.492L113.73 103.974C113.347 104.01 112.992 104.199 112.739 104.499C112.487 104.8 112.357 105.19 112.376 105.588C112.39 105.786 112.366 105.985 112.306 106.173C112.246 106.362 112.15 106.536 112.025 106.686C111.899 106.836 111.746 106.96 111.575 107.049C111.403 107.138 111.216 107.191 111.024 107.205C110.922 107.218 110.827 107.27 110.758 107.35C110.689 107.429 110.651 107.532 110.65 107.639L110.743 109.11C110.75 109.155 110.746 109.201 110.734 109.244C110.721 109.288 110.7 109.328 110.671 109.362C110.643 109.397 110.607 109.424 110.567 109.443C110.527 109.461 110.484 109.471 110.44 109.471C110.361 109.479 110.282 109.456 110.217 109.408C110.153 109.36 110.108 109.29 110.09 109.209L109.809 107.807L109.531 107.349L108.012 108.315C108.012 108.315 105.554 104.405 106.731 100.839C107.407 98.8134 109.343 98.0886 110.275 97.9604C110.422 97.9397 110.563 97.8858 110.688 97.8026C110.812 97.7194 110.918 97.609 110.996 97.4789C111.371 96.8274 112.28 95.6944 114.31 95.765C114.883 95.7679 115.446 95.9197 115.948 96.2065C116.449 96.493 116.873 96.9054 117.18 97.4057C117.31 97.6085 117.506 97.7566 117.733 97.8228C117.96 97.8892 118.202 97.8691 118.415 97.7668C118.85 97.5564 119.33 97.4661 119.809 97.5041C120.287 97.5423 120.748 97.7074 121.147 97.984C123.248 99.3682 122.407 103.128 120.167 103.492Z" fill="#133133"/>
<path opacity="0.15" d="M109.48 111.713C109.48 111.713 110.088 111.763 110.414 111.496L109.387 113.137L109.48 111.713Z" fill="#133133"/>
<path d="M109.834 107.807C109.834 107.807 109.366 106.433 107.966 107.061C106.381 107.783 106.7 111.509 109.388 111.713C110.788 111.834 110.51 110.991 110.277 109.858L109.834 107.807Z" fill="#F2B3C1"/>
<path opacity="0.15" d="M107.898 108.024C108.004 107.938 108.126 107.874 108.257 107.837C108.387 107.8 108.523 107.789 108.657 107.807C108.788 107.841 108.909 107.905 109.013 107.992C109.118 108.08 109.203 108.189 109.262 108.314C109.434 108.622 109.521 108.972 109.515 109.327L109.538 109.641C109.533 109.682 109.514 109.72 109.484 109.747C109.454 109.775 109.415 109.79 109.375 109.79C109.335 109.79 109.296 109.775 109.266 109.747C109.236 109.72 109.217 109.682 109.212 109.641L109.189 109.327C109.177 109.033 109.106 108.745 108.979 108.482C108.892 108.32 108.756 108.193 108.591 108.121C108.412 108.108 108.233 108.158 108.085 108.265C108.048 108.288 108.003 108.296 107.96 108.287C107.917 108.278 107.879 108.254 107.852 108.217C107.804 108.194 107.832 108.097 107.898 108.024Z" fill="#133133"/>
<path opacity="0.15" d="M119.185 119.407L118.952 117.052C118.344 117.703 116.595 118.643 114.611 118.161C113.62 117.904 112.734 117.33 112.079 116.52C112.067 116.504 112.052 116.491 112.035 116.482C112.018 116.472 111.999 116.466 111.979 116.464C111.96 116.461 111.94 116.463 111.921 116.469C111.902 116.475 111.885 116.484 111.869 116.497C111.854 116.509 111.841 116.525 111.831 116.543C111.821 116.56 111.815 116.58 111.813 116.6C111.811 116.621 111.813 116.641 111.819 116.661C111.824 116.68 111.834 116.698 111.846 116.714C112.702 117.746 113.9 118.409 115.205 118.572C115.781 118.979 116.43 119.262 117.113 119.406C117.797 119.549 118.501 119.549 119.185 119.407Z" fill="#133133"/>
<g opacity="0.15">
<path opacity="0.15" d="M117.228 115.235C117.205 115.259 117.228 115.259 117.228 115.235C116.623 115.282 116.342 115.308 116.342 115.308C116.29 115.31 116.239 115.291 116.199 115.255C116.16 115.219 116.136 115.169 116.132 115.115C116.129 115.088 116.132 115.06 116.14 115.034C116.149 115.009 116.162 114.984 116.18 114.964C116.197 114.944 116.219 114.927 116.243 114.916C116.267 114.904 116.293 114.898 116.319 114.898L117.182 114.824C117.232 114.819 117.282 114.833 117.321 114.865C117.36 114.897 117.386 114.943 117.392 114.994C117.392 115.133 117.321 115.235 117.228 115.235Z" fill="#133133"/>
</g>
<g opacity="0.15">
<path opacity="0.15" d="M117.554 114.367C115.967 114.608 115.245 113.715 114.987 113.281C114.963 113.236 114.956 113.183 114.97 113.134C114.983 113.084 115.015 113.042 115.058 113.017C115.101 112.991 115.153 112.985 115.201 112.998C115.248 113.012 115.289 113.045 115.314 113.09C115.549 113.524 116.341 114.464 118.255 113.812C118.279 113.802 118.304 113.796 118.33 113.796C118.355 113.797 118.38 113.802 118.404 113.813C118.427 113.824 118.448 113.84 118.465 113.859C118.482 113.879 118.496 113.902 118.504 113.927C118.512 113.952 118.515 113.979 118.512 114.005C118.51 114.031 118.502 114.057 118.49 114.08C118.477 114.103 118.461 114.124 118.44 114.14C118.42 114.155 118.396 114.167 118.372 114.173C118.105 114.265 117.832 114.329 117.554 114.367Z" fill="#133133"/>
</g>
<path d="M115.362 110.51C115.478 110.51 115.591 110.474 115.687 110.408C115.783 110.342 115.858 110.247 115.902 110.137C115.947 110.026 115.958 109.905 115.936 109.787C115.913 109.67 115.857 109.563 115.776 109.478C115.694 109.393 115.59 109.336 115.476 109.313C115.363 109.289 115.245 109.301 115.138 109.347C115.031 109.393 114.94 109.47 114.876 109.57C114.812 109.669 114.777 109.786 114.777 109.905C114.777 110.066 114.839 110.219 114.949 110.333C115.058 110.446 115.207 110.51 115.362 110.51Z" fill="#133133"/>
<path d="M115.617 110.075C115.646 110.071 115.672 110.056 115.69 110.034C115.709 110.012 115.719 109.983 115.719 109.954C115.719 109.924 115.709 109.896 115.69 109.873C115.672 109.851 115.646 109.836 115.617 109.832C115.589 109.836 115.563 109.851 115.545 109.873C115.526 109.896 115.516 109.924 115.516 109.954C115.516 109.983 115.526 110.012 115.545 110.034C115.563 110.056 115.589 110.071 115.617 110.075Z" fill="white"/>
<path d="M119.981 110.533C120.097 110.533 120.21 110.498 120.306 110.431C120.402 110.365 120.477 110.271 120.522 110.16C120.566 110.05 120.577 109.928 120.555 109.811C120.532 109.694 120.477 109.586 120.395 109.501C120.313 109.417 120.209 109.359 120.095 109.336C119.982 109.313 119.865 109.325 119.757 109.371C119.651 109.416 119.559 109.494 119.495 109.593C119.431 109.692 119.396 109.809 119.396 109.929C119.396 110.008 119.411 110.087 119.441 110.161C119.47 110.234 119.513 110.301 119.567 110.357C119.622 110.413 119.686 110.458 119.757 110.488C119.828 110.518 119.905 110.534 119.981 110.533Z" fill="#133133"/>
<path d="M120.234 110.099C120.264 110.099 120.294 110.086 120.316 110.064C120.338 110.041 120.35 110.01 120.35 109.978C120.35 109.963 120.348 109.947 120.342 109.932C120.336 109.917 120.328 109.904 120.317 109.893C120.306 109.881 120.293 109.873 120.279 109.867C120.264 109.861 120.249 109.858 120.234 109.858C120.203 109.858 120.173 109.871 120.151 109.893C120.13 109.916 120.117 109.947 120.117 109.978C120.118 110.01 120.13 110.041 120.152 110.063C120.174 110.085 120.203 110.098 120.234 110.099Z" fill="white"/>
<g opacity="0.15">
<path opacity="0.15" d="M117.974 112.896L117.215 112.943C117.17 112.942 117.127 112.924 117.092 112.893C117.058 112.863 117.035 112.821 117.027 112.776C117.03 112.729 117.047 112.684 117.077 112.649C117.107 112.614 117.147 112.59 117.192 112.582L117.951 112.535C117.999 112.534 118.046 112.523 118.089 112.503C118.133 112.483 118.172 112.453 118.204 112.417C118.237 112.381 118.261 112.338 118.277 112.291C118.293 112.245 118.299 112.196 118.296 112.146C118.292 112.097 118.28 112.049 118.258 112.005C118.236 111.961 118.206 111.923 118.169 111.891C118.132 111.86 118.09 111.836 118.044 111.822C117.999 111.809 117.95 111.804 117.903 111.81C117.858 111.808 117.816 111.791 117.782 111.76C117.748 111.73 117.726 111.688 117.718 111.643C117.696 111.546 117.787 111.473 117.88 111.449C118.062 111.439 118.24 111.501 118.379 111.622C118.517 111.743 118.606 111.914 118.627 112.101C118.639 112.295 118.578 112.486 118.456 112.635C118.334 112.783 118.161 112.877 117.974 112.896Z" fill="#133133"/>
</g>
<path d="M121.691 108.003L119.16 107.924H118.81L116.595 107.856H116.573L113.705 107.767C113.594 107.763 113.484 107.782 113.381 107.823C113.277 107.863 113.183 107.924 113.102 108.002C113.022 108.081 112.957 108.175 112.912 108.279C112.867 108.383 112.842 108.496 112.839 108.61L112.821 109.285C112.812 109.595 112.863 109.904 112.969 110.194C113.076 110.484 113.236 110.75 113.442 110.975C113.648 111.201 113.895 111.383 114.168 111.51C114.442 111.638 114.737 111.708 115.037 111.717C115.337 111.726 115.636 111.675 115.917 111.564C116.197 111.454 116.454 111.288 116.673 111.075C116.891 110.863 117.067 110.608 117.19 110.325C117.313 110.042 117.381 109.736 117.39 109.426L117.41 108.751C117.415 108.557 117.354 108.368 117.238 108.215L118.124 108.241C118.008 108.389 117.945 108.574 117.947 108.764L117.927 109.439C117.909 110.066 118.133 110.674 118.549 111.13C118.965 111.586 119.539 111.853 120.145 111.872C120.752 111.89 121.34 111.659 121.781 111.228C122.223 110.798 122.481 110.205 122.498 109.578L122.516 108.903C122.521 108.787 122.504 108.672 122.465 108.563C122.425 108.455 122.366 108.355 122.289 108.271C122.211 108.187 122.119 108.12 122.016 108.074C121.914 108.028 121.803 108.004 121.691 108.003ZM117.074 108.73L117.054 109.405C117.028 109.93 116.805 110.423 116.433 110.779C116.061 111.137 115.569 111.329 115.061 111.317C114.554 111.305 114.071 111.088 113.716 110.714C113.36 110.339 113.16 109.836 113.158 109.311L113.178 108.636C113.178 108.565 113.192 108.495 113.219 108.43C113.246 108.365 113.285 108.306 113.334 108.258C113.384 108.209 113.442 108.17 113.507 108.146C113.571 108.121 113.639 108.109 113.707 108.113L116.575 108.199H116.598C116.728 108.207 116.85 108.267 116.939 108.366C117.028 108.465 117.076 108.595 117.074 108.73ZM122.162 109.562C122.136 110.087 121.913 110.58 121.541 110.937C121.168 111.294 120.676 111.487 120.168 111.474C119.66 111.461 119.178 111.244 118.822 110.869C118.467 110.494 118.268 109.991 118.266 109.466L118.286 108.791C118.286 108.72 118.3 108.65 118.327 108.585C118.353 108.52 118.393 108.462 118.442 108.413C118.491 108.364 118.549 108.326 118.613 108.301C118.677 108.276 118.745 108.264 118.813 108.267H119.162L121.706 108.343C121.774 108.343 121.842 108.357 121.905 108.385C121.968 108.413 122.025 108.453 122.072 108.505C122.12 108.556 122.156 108.616 122.18 108.682C122.205 108.749 122.215 108.819 122.212 108.89L122.162 109.562Z" fill="#133133"/>
<path opacity="0.15" d="M120.488 129.002L117.479 178.763C117.477 178.994 117.519 179.222 117.603 179.436C117.688 179.65 117.812 179.844 117.969 180.008C118.126 180.172 118.313 180.302 118.519 180.391C118.725 180.48 118.946 180.526 119.169 180.526H131.98V173.004L120.488 129.002Z" fill="#133133"/>
<path opacity="0.3" d="M110.108 133.45L105.215 170.447V175.597L97.5762 175.505V267.703L101.565 267.729L105.19 187.374L105.284 185.082C105.307 184.447 105.542 183.84 105.948 183.363C106.354 182.886 106.908 182.569 107.514 182.465L110.673 181.921C110.908 181.921 111.14 181.873 111.357 181.779C111.573 181.686 111.77 181.548 111.935 181.376C112.1 181.203 112.23 180.997 112.317 180.772C112.405 180.547 112.448 180.306 112.445 180.063L112.546 162.976C112.605 153.078 111.789 143.195 110.108 133.45Z" fill="#133133"/>
<path d="M123.586 121.452L132.39 123.781C133.582 124.065 134.667 124.703 135.512 125.617C136.357 126.531 136.924 127.682 137.144 128.926L142.302 156.615L132.21 155.568L131.772 179.118C131.769 179.342 131.68 179.555 131.526 179.712C131.371 179.869 131.164 179.957 130.947 179.956H121.265C121.049 179.956 120.841 179.869 120.687 179.713C120.532 179.557 120.442 179.344 120.437 179.121L119.574 120.769L123.586 121.452Z" fill="#4CA02F"/>
<path d="M108.59 121.152C110.443 132.817 111.305 144.627 111.167 156.448L110.901 179.1C110.897 179.325 110.809 179.538 110.654 179.695C110.499 179.852 110.291 179.94 110.074 179.94H97.4175C97.1998 179.94 96.9908 179.852 96.8358 179.693C96.6809 179.535 96.5926 179.32 96.5898 179.095L96.4405 159.617L92.4057 161.187L90.7882 161.629C88.786 162.173 86.723 160.75 86.5737 158.614C86.5552 158.368 86.5645 158.12 86.6015 157.877L90.8489 129.093C91.0406 127.805 91.6048 126.607 92.4672 125.657C93.3296 124.707 94.4499 124.048 95.6811 123.768L103.022 122.086C104.859 121.665 106.718 121.353 108.59 121.152Z" fill="#4CA02F"/>
<path d="M133.396 155.579L142.301 156.616L139.788 143.121L133.396 144.179V155.579Z" fill="#F2B3C1"/>
<path opacity="0.15" d="M94.1621 135.517C94.1621 135.517 95.5239 136.784 96.544 140.018L94.1621 135.517Z" fill="#133133"/>
<path opacity="0.15" d="M133.323 146.3V135.517L135.259 146.769C135.548 148.544 136.455 150.149 137.811 151.28L142.068 154.739L142.418 156.911L134.763 154.271L133.277 146.227" fill="#133133"/>
<path d="M136.396 148.294C136.396 148.294 137.077 147.355 137.305 148.294L137.077 152.512L135.943 149.699L136.396 148.294Z" fill="#F2B3C1"/>
<path opacity="0.15" d="M136.396 148.294C136.396 148.294 137.077 147.355 137.305 148.294L137.077 152.512L135.943 149.699L136.396 148.294Z" fill="#133133"/>
<path opacity="0.15" d="M134.915 128.251C133.781 130.606 133.328 135.054 133.328 135.054C133.328 135.054 133.895 132.359 134.801 131.653" fill="#133133"/>
<path opacity="0.15" d="M96.4102 163.147L96.5899 179.108C96.5924 179.333 96.681 179.548 96.8359 179.706C96.9908 179.865 97.1999 179.953 97.4176 179.953H100.111L99.9843 157.895L98.3542 151.709L96.9063 136.067C96.905 136.043 96.8994 136.02 96.8896 135.998C96.8797 135.977 96.8658 135.958 96.8488 135.942C96.8319 135.926 96.8119 135.913 96.7904 135.905C96.7686 135.897 96.7458 135.894 96.7228 135.895C96.6997 135.896 96.6772 135.902 96.6567 135.913C96.6359 135.923 96.6172 135.937 96.6018 135.955C96.5863 135.972 96.5744 135.993 96.5668 136.015C96.5592 136.037 96.5557 136.061 96.557 136.085L96.4102 163.147Z" fill="#133133"/>
<path d="M96.4405 144.178L88.8467 142.87L86.6015 157.877C86.5645 158.122 86.5552 158.372 86.5737 158.62C86.7255 160.752 88.7885 162.173 90.7882 161.629L92.4057 161.187L93.1397 160.925C95.2518 160.175 97.2867 159.211 99.2147 158.047L96.4303 149.15L96.4405 144.178Z" fill="#F2B3C1"/>
<path d="M136.723 152.512L141.771 155.59C142.229 155.87 142.411 156.43 142.479 157.016C142.689 158.777 141.892 163.445 137.273 161.987C136.927 161.871 136.63 161.639 136.427 161.328L133.377 156.738L136.723 152.512Z" fill="#F2B3C1"/>
<path opacity="0.15" d="M134.842 156.906C135.69 156.134 136.559 154.726 136.824 152.63L136.414 152.397L133.189 156.846L133.696 157.432L136.435 161.338C136.639 161.649 136.937 161.881 137.282 161.998C140.515 163.018 141.864 161.247 142.332 159.078C140.09 163.772 136.146 159.625 134.779 157.952C134.658 157.803 134.598 157.611 134.609 157.416C134.621 157.222 134.705 157.039 134.842 156.906Z" fill="#133133"/>
<path d="M96.4688 149.247L113.608 144.66L121.024 141.593C121.362 141.454 121.735 141.434 122.085 141.535L125.568 142.551C125.829 142.628 126.067 142.773 126.259 142.972L128.428 145.212C128.489 145.274 128.535 145.35 128.565 145.432C128.595 145.515 128.607 145.603 128.601 145.691C128.595 145.779 128.571 145.865 128.53 145.942C128.49 146.02 128.433 146.088 128.365 146.141C128.262 146.221 128.137 146.265 128.008 146.265C127.879 146.265 127.754 146.221 127.651 146.141L125.287 144.309L123.262 143.681C123.194 143.66 123.122 143.664 123.057 143.693C122.992 143.721 122.939 143.773 122.908 143.838C122.876 143.904 122.868 143.979 122.885 144.051C122.903 144.122 122.944 144.185 123.001 144.228L125.571 146.125C125.69 146.209 125.78 146.332 125.826 146.473C125.872 146.615 125.871 146.769 125.824 146.91C125.779 147.054 125.69 147.178 125.571 147.263L125.371 147.402C125.281 147.463 125.178 147.501 125.071 147.512C124.964 147.524 124.855 147.509 124.755 147.467L123.945 147.133L124.267 147.352C124.37 147.424 124.448 147.528 124.488 147.65C124.528 147.771 124.529 147.903 124.49 148.025C124.462 148.112 124.415 148.19 124.353 148.255C124.29 148.319 124.214 148.368 124.13 148.396L123.877 148.48C123.769 148.517 123.652 148.517 123.543 148.48L122.126 148.061L123.358 148.608C123.405 148.628 123.447 148.659 123.482 148.697C123.517 148.734 123.544 148.779 123.56 148.829C123.577 148.878 123.584 148.931 123.58 148.983C123.576 149.035 123.562 149.086 123.538 149.132C123.504 149.206 123.447 149.266 123.376 149.302L123.022 149.485C122.732 149.634 122.407 149.694 122.085 149.658L120.536 149.48C120.536 149.48 118.496 149.948 115.322 149.713L97.4079 159.091L94.0059 155.106L96.4688 149.247Z" fill="#F2B3C1"/>
<path opacity="0.15" d="M123.359 148.889C123.359 149.825 120.413 148.889 120.413 148.889C119.051 148.889 114.971 148.185 114.971 148.185L96.5329 155.823V155.87C86.332 160.287 86.8711 156.024 86.8711 156.019L86.5978 157.877C86.5606 158.126 86.5512 158.379 86.5699 158.63C86.7345 160.855 88.6987 162.197 90.7845 161.629L92.4019 161.187L93.1866 160.925C94.8436 160.4 96.4433 159.698 97.9605 158.832L97.915 158.806L115.31 149.7C118.484 149.935 120.524 149.467 120.524 149.467L122.073 149.645C122.395 149.681 122.72 149.621 123.01 149.472L123.364 149.289C123.435 149.253 123.492 149.193 123.526 149.119V149.103L123.359 148.889Z" fill="#133133"/>
<path opacity="0.15" d="M124.113 147.198L122.225 146.3" stroke="#133133" stroke-width="0.9" stroke-miterlimit="10" stroke-linecap="round"/>
<path opacity="0.15" d="M122.799 148.362L121.318 147.708" stroke="#133133" stroke-width="0.9" stroke-miterlimit="10" stroke-linecap="round"/>
<path opacity="0.15" d="M105.687 121.555L105.047 135.02L110.023 132.008L108.591 121.152L105.687 121.555Z" fill="#133133"/>
<path d="M106.06 121.481L105.73 133.712L109.91 131.65L108.515 120.105L106.06 121.481Z" fill="#4CA02F"/>
<path opacity="0.15" d="M121.884 120.958L124.537 134.497L119.702 132.163L119.475 120.367L121.884 120.958Z" fill="#133133"/>
<path d="M119.475 119.843L119.702 131.65L123.778 133.45L121.5 120.827L119.475 119.843Z" fill="#4CA02F"/>
<path opacity="0.15" d="M96.4402 149.15L94.1621 149.935L96.4099 148.176L96.4402 149.15Z" fill="#133133"/>
<path d="M127.915 145.065L118.742 156.553L119.446 157.34L134.335 154.993L141.718 143.508L141.032 142.87L127.915 145.065Z" fill="#263238"/>
<path opacity="0.15" d="M119.474 157.262L128.334 146.01L141.749 143.393L140.99 142.87L127.827 144.963L118.715 156.738L119.474 157.262Z" fill="#133133"/>
<path d="M133.903 148.103C134.182 148.103 134.409 147.869 134.409 147.58C134.409 147.291 134.182 147.057 133.903 147.057C133.623 147.057 133.396 147.291 133.396 147.58C133.396 147.869 133.623 148.103 133.903 148.103Z" fill="#FAFAFA"/>
<path d="M137.647 148.103C137.361 148.103 137.081 148.192 136.845 148.358C136.609 148.525 136.427 148.762 136.323 149.037C136.103 149.631 135.779 150.325 135.422 150.526C134.759 150.901 133.617 151.199 133.015 150.895C132.412 150.592 130.008 148.352 129.587 148.601C129.167 148.849 128.805 149.409 129.225 149.909C129.646 150.409 131.873 151.898 131.453 152.395C131.033 152.892 126.34 150.704 125.618 150.898C124.897 151.092 124.474 151.549 124.894 151.848C125.315 152.146 128.504 153.392 128.691 153.826C128.691 153.826 123.882 152.518 123.7 152.832C123.517 153.146 123.219 153.64 123.7 153.826C124.181 154.012 128.332 155.134 128.691 155.318C129.288 155.574 129.91 155.762 130.547 155.877C131.203 156.055 131.85 156.268 132.486 156.513C133.46 156.862 134.523 156.832 135.478 156.43L135.966 156.225C136.336 156.07 136.649 155.798 136.861 155.449C137.074 155.1 137.175 154.691 137.151 154.279L137.052 152.583L137.579 151.183L137.647 148.103Z" fill="#F2B3C1"/>
<path d="M128.333 154.645L125.043 154.383C125.043 154.383 124.516 154.564 124.79 154.928C124.909 155.076 125.08 155.17 125.266 155.189L130.865 155.953L128.333 154.645Z" fill="#F2B3C1"/>
</svg>
